<?xml version="1.0" encoding="iso-8859-1"?>
<!-- Generator: Adobe Illustrator 18.0.0, SVG Export Plug-In . SVG Version: 6.00 Build 0)  -->
<!DOCTYPE svg PUBLIC "-//W3C//DTD SVG 1.1//EN" "http://www.w3.org/Graphics/SVG/1.1/DTD/svg11.dtd">
<svg version="1.1" id="Capa_1" xmlns="http://www.w3.org/2000/svg" xmlns:xlink="http://www.w3.org/1999/xlink" x="0px" y="0px"
	 viewBox="0 0 474.707 474.707" style="enable-background:new 0 0 474.707 474.707;" xml:space="preserve">
<g>
	<path d="M466.657,246.846L393.71,120.268c0-15.858-12.901-28.759-28.76-28.759H255.966V55.756
		c7.513-5.661,12.38-14.654,12.38-24.763C268.346,13.903,254.443,0,237.354,0c-17.089,0-30.993,13.903-30.993,30.993
		c0,10.107,4.864,19.097,12.373,24.758v35.758H109.757c-15.858,0-28.759,12.901-28.759,28.759L8.05,246.846
		c-1.161,2.011-1.161,4.489,0,6.5c0,0.001,0.001,0.001,0.001,0.002l24.253,42.009c1.161,2.011,3.307,3.25,5.629,3.25h99.126
		c2.322,0,4.468-1.239,5.629-3.25l24.255-42.01c0.58-1.006,0.871-2.128,0.87-3.25c0-1.122-0.29-2.245-0.87-3.25L98.756,128.74
		h119.978v177.775h-2.897c-3.59,0-6.5,2.91-6.5,6.5v94.735h-87.913c-3.59,0-6.5,2.91-6.5,6.5v20.479h-7.098
		c-3.59,0-6.5,2.91-6.5,6.5v26.979c0,3.59,2.91,6.5,6.5,6.5h259.057c3.59,0,6.5-2.91,6.5-6.5v-26.979c0-3.59-2.91-6.5-6.5-6.5
		h-7.099V414.25c0-3.59-2.91-6.5-6.5-6.5H265.37v-94.735c0-3.59-2.91-6.5-6.5-6.5h-2.904V128.74h119.986l-68.189,118.106
		c-0.581,1.006-0.871,2.128-0.871,3.25s0.29,2.245,0.871,3.25l24.255,42.01c1.161,2.011,3.307,3.25,5.629,3.25h99.126
		c2.322,0,4.468-1.239,5.629-3.25l24.255-42.01c0.581-1.006,0.871-2.128,0.871-3.25S467.237,247.852,466.657,246.846z M237.354,13
		c9.921,0,17.992,8.071,17.992,17.993c0,9.921-8.071,17.992-17.992,17.992c-9.921,0-17.993-8.071-17.993-17.992
		C219.361,21.071,227.432,13,237.354,13z M231.734,61.465c1.824,0.336,3.7,0.52,5.62,0.52c1.917,0,3.791-0.184,5.612-0.519v30.042
		h-11.232V61.465z M109.757,104.509h255.194c7.117,0,13.146,4.742,15.097,11.231H94.66C96.61,109.25,102.64,104.509,109.757,104.509
		z M80.472,256.597l-11.393,29.01h-8.114l11.393-29.01H80.472z M24.938,256.597h33.453l-11.393,29.01h-5.31L24.938,256.597z
		 M133.307,285.607H83.045l11.393-29.01h55.618L133.307,285.607z M24.938,243.596l62.56-108.356l62.56,108.356H24.938z
		 M127.924,420.75h157.348l-5.489,13.979H127.924V420.75z M293.749,434.729l5.489-13.979h5.695l-5.489,13.979H293.749z
		 M114.326,447.729h7.098h36.755l-5.489,13.979h-38.364V447.729z M360.382,461.707H166.656l5.489-13.979h181.139h7.099V461.707z
		 M346.784,434.729h-33.373l5.489-13.979h27.883V434.729z M222.337,407.75v-88.235h30.034v88.235H222.337z M242.966,306.515h-11.232
		V128.74h11.232V306.515z M387.21,135.24l62.559,108.356H324.651L387.21,135.24z M324.651,256.597h85.427l-11.394,29.01H341.4
		L324.651,256.597z M433.02,285.607h-20.37l11.394-29.01h25.725L433.02,285.607z"/>
	<path d="M237.357,37.492c1.71,0,3.38-0.69,4.59-1.9c1.21-1.22,1.91-2.89,1.91-4.6s-0.7-3.38-1.91-4.6c-1.21-1.21-2.88-1.9-4.59-1.9
		s-3.39,0.69-4.6,1.9c-1.21,1.21-1.9,2.89-1.9,4.6s0.69,3.39,1.9,4.6S235.647,37.492,237.357,37.492z"/>
</g>
<g>
</g>
<g>
</g>
<g>
</g>
<g>
</g>
<g>
</g>
<g>
</g>
<g>
</g>
<g>
</g>
<g>
</g>
<g>
</g>
<g>
</g>
<g>
</g>
<g>
</g>
<g>
</g>
<g>
</g>
</svg>
