<svg height="512pt" viewBox="-31 0 512 512.00017" width="512pt" xmlns="http://www.w3.org/2000/svg"><path d="m440 146h-6v-46c0-5.523438-4.480469-10-10-10h-154.335938v-26c0-4.648438-3.203124-8.683594-7.730468-9.738281l-232-54c-2.96875-.695313-6.097656.007812-8.484375 1.90625-2.390625 1.898437-3.78125 4.78125-3.78125 7.832031v442h-7.667969c-5.523438 0-10 4.476562-10 10v40c0 5.523438 4.476562 10 10 10h430c5.519531 0 10-4.476562 10-10v-128c0-5.523438-4.480469-10-10-10-5.523438 0-10 4.476562-10 10v118h-196v-326h196v118c0 5.523438 4.476562 10 10 10 5.519531 0 10-4.476562 10-10v-128c0-5.523438-4.480469-10-10-10zm-402.335938 278h106c5.523438 0 10-4.476562 10-10s-4.476562-10-10-10h-106v-28h106c5.523438 0 10-4.476562 10-10s-4.476562-10-10-10h-106v-28h106c5.523438 0 10-4.476562 10-10s-4.476562-10-10-10h-106v-28h106c5.523438 0 10-4.476562 10-10s-4.476562-10-10-10h-106v-28h106c5.523438 0 10-4.476562 10-10s-4.476562-10-10-10h-106v-28h106c5.523438 0 10-4.476562 10-10s-4.476562-10-10-10h-106v-28h106c5.523438 0 10-4.476562 10-10s-4.476562-10-10-10h-106v-93.402344l212 49.34375v18.058594h-9.664062c-5.523438 0-10 4.476562-10 10v46h-6c-5.523438 0-10 4.476562-10 10v296h-176.335938zm-17.664062 48h194v20h-194zm230-326v-36h164v36zm0 0"/><path d="m286 211.199219c0-5.519531-4.480469-10-10-10-5.523438 0-10 4.480469-10 10v28c0 5.523437 4.476562 10 10 10 5.519531 0 10-4.476563 10-10zm0 0"/><path d="m342 211.199219c0-5.519531-4.480469-10-10-10-5.523438 0-10 4.480469-10 10v28c0 5.523437 4.476562 10 10 10 5.519531 0 10-4.476563 10-10zm0 0"/><path d="m398 211.199219c0-5.519531-4.480469-10-10-10-5.523438 0-10 4.480469-10 10v28c0 5.523437 4.476562 10 10 10 5.519531 0 10-4.476563 10-10zm0 0"/><path d="m286 280.402344c0-5.523438-4.480469-10-10-10-5.523438 0-10 4.476562-10 10v28c0 5.519531 4.476562 10 10 10 5.519531 0 10-4.480469 10-10zm0 0"/><path d="m342 280.402344c0-5.523438-4.480469-10-10-10-5.523438 0-10 4.476562-10 10v28c0 5.519531 4.476562 10 10 10 5.519531 0 10-4.480469 10-10zm0 0"/><path d="m398 280.402344c0-5.523438-4.480469-10-10-10-5.523438 0-10 4.476562-10 10v28c0 5.519531 4.476562 10 10 10 5.519531 0 10-4.480469 10-10zm0 0"/><path d="m286 349.601562c0-5.523437-4.480469-10-10-10-5.523438 0-10 4.476563-10 10v28c0 5.523438 4.476562 10 10 10 5.519531 0 10-4.476562 10-10zm0 0"/><path d="m342 349.601562c0-5.523437-4.480469-10-10-10-5.523438 0-10 4.476563-10 10v28c0 5.523438 4.476562 10 10 10 5.519531 0 10-4.476562 10-10zm0 0"/><path d="m398 349.601562c0-5.523437-4.480469-10-10-10-5.523438 0-10 4.476563-10 10v28c0 5.523438 4.476562 10 10 10 5.519531 0 10-4.476562 10-10zm0 0"/><path d="m276 408.800781c-5.523438 0-10 4.476563-10 10v28c0 5.523438 4.476562 10 10 10 5.519531 0 10-4.476562 10-10v-28c0-5.523437-4.480469-10-10-10zm0 0"/><path d="m332 408.800781c-5.523438 0-10 4.476563-10 10v28c0 5.523438 4.476562 10 10 10 5.519531 0 10-4.476562 10-10v-28c0-5.523437-4.480469-10-10-10zm0 0"/><path d="m388 408.800781c-5.523438 0-10 4.476563-10 10v28c0 5.523438 4.476562 10 10 10 5.519531 0 10-4.476562 10-10v-28c0-5.523437-4.480469-10-10-10zm0 0"/><path d="m440 319c-2.632812 0-5.210938 1.070312-7.070312 2.929688-1.863282 1.859374-2.929688 4.441406-2.929688 7.070312s1.066406 5.210938 2.929688 7.070312c1.859374 1.859376 4.4375 2.929688 7.070312 2.929688 2.628906 0 5.207031-1.070312 7.066406-2.929688 1.859375-1.859374 2.933594-4.441406 2.933594-7.070312s-1.070312-5.210938-2.933594-7.070312c-1.859375-1.859376-4.4375-2.929688-7.066406-2.929688zm0 0"/></svg>