<svg height="512pt" viewBox="0 0 512 512" width="512pt" xmlns="http://www.w3.org/2000/svg"><path d="m462 124h-63c-5.523438 0-10 4.476562-10 10s4.476562 10 10 10h63c16.542969 0 30 13.457031 30 30v288c0 16.542969-13.457031 30-30 30h-216c-16.542969 0-30-13.457031-30-30v-288c0-16.542969 13.457031-30 30-30h63c5.523438 0 10-4.476562 10-10s-4.476562-10-10-10h-63c-27.570312 0-50 22.429688-50 50v7.855469l-178.929688-178.925781c-2.859374-2.8593755-7.164062-3.714844-10.898437-2.167969s-6.171875 5.195312-6.171875 9.238281v438c0 5.523438 4.476562 10 10 10h186v4c0 27.570312 22.429688 50 50 50h216c27.570312 0 50-22.429688 50-50v-288c0-27.570312-22.429688-50-50-50zm-266 242h-104v-158.035156l104 104zm-176 72v-55h8.75c5.523438 0 10-4.476562 10-10s-4.476562-10-10-10h-8.75v-28h22c5.523438 0 10-4.476562 10-10s-4.476562-10-10-10h-22v-28h8.75c5.523438 0 10-4.476562 10-10s-4.476562-10-10-10h-8.75v-28h22c5.523438 0 10-4.476562 10-10s-4.476562-10-10-10h-22v-28h8.75c5.523438 0 10-4.476562 10-10s-4.476562-10-10-10h-8.75v-28h22c5.523438 0 10-4.476562 10-10s-4.476562-10-10-10h-22v-28h8.75c5.523438 0 10-4.476562 10-10s-4.476562-10-10-10h-8.75v-40.859375l176 176v73.539063l-106.929688-106.929688c-2.859374-2.859375-7.160156-3.714844-10.898437-2.164062-3.734375 1.546874-6.171875 5.191406-6.171875 9.238281v192.175781c0 5.523438 4.476562 10 10 10h114v52zm0 0"/><path d="m464 182c0-5.523438-4.476562-10-10-10h-200c-5.523438 0-10 4.476562-10 10v80c0 5.523438 4.476562 10 10 10h200c5.523438 0 10-4.476562 10-10zm-20 70h-180v-60h180zm0 0"/><path d="m274.9375 308h-18.808594c-5.523437 0-10 4.476562-10 10s4.476563 10 10 10h18.808594c5.523438 0 10-4.476562 10-10s-4.476562-10-10-10zm0 0"/><path d="m334.625 308h-18.8125c-5.523438 0-10 4.476562-10 10s4.476562 10 10 10h18.8125c5.523438 0 10-4.476562 10-10s-4.476562-10-10-10zm0 0"/><path d="m394.3125 308h-18.808594c-5.523437 0-10 4.476562-10 10s4.476563 10 10 10h18.808594c5.523438 0 10-4.476562 10-10s-4.476562-10-10-10zm0 0"/><path d="m454 308h-18.8125c-5.523438 0-10 4.476562-10 10s4.476562 10 10 10h18.8125c5.523438 0 10-4.476562 10-10s-4.476562-10-10-10zm0 0"/><path d="m274.9375 364h-18.808594c-5.523437 0-10 4.476562-10 10s4.476563 10 10 10h18.808594c5.523438 0 10-4.476562 10-10s-4.476562-10-10-10zm0 0"/><path d="m334.625 364h-18.8125c-5.523438 0-10 4.476562-10 10s4.476562 10 10 10h18.8125c5.523438 0 10-4.476562 10-10s-4.476562-10-10-10zm0 0"/><path d="m394.3125 364h-18.808594c-5.523437 0-10 4.476562-10 10s4.476563 10 10 10h18.808594c5.523438 0 10-4.476562 10-10s-4.476562-10-10-10zm0 0"/><path d="m454 364h-18.8125c-5.523438 0-10 4.476562-10 10s4.476562 10 10 10h18.8125c5.523438 0 10-4.476562 10-10s-4.476562-10-10-10zm0 0"/><path d="m274.9375 420h-18.808594c-5.523437 0-10 4.476562-10 10s4.476563 10 10 10h18.808594c5.523438 0 10-4.476562 10-10s-4.476562-10-10-10zm0 0"/><path d="m334.625 420h-18.8125c-5.523438 0-10 4.476562-10 10s4.476562 10 10 10h18.8125c5.523438 0 10-4.476562 10-10s-4.476562-10-10-10zm0 0"/><path d="m394.3125 420h-18.808594c-5.523437 0-10 4.476562-10 10s4.476563 10 10 10h18.808594c5.523438 0 10-4.476562 10-10s-4.476562-10-10-10zm0 0"/><path d="m454 420h-18.8125c-5.523438 0-10 4.476562-10 10s4.476562 10 10 10h18.8125c5.523438 0 10-4.476562 10-10s-4.476562-10-10-10zm0 0"/><path d="m354 144c2.628906 0 5.210938-1.070312 7.070312-2.929688 1.859376-1.859374 2.929688-4.441406 2.929688-7.070312s-1.070312-5.210938-2.929688-7.070312c-1.859374-1.859376-4.441406-2.929688-7.070312-2.929688s-5.210938 1.070312-7.070312 2.929688c-1.859376 1.859374-2.929688 4.441406-2.929688 7.070312s1.070312 5.210938 2.929688 7.070312c1.859374 1.859376 4.441406 2.929688 7.070312 2.929688zm0 0"/></svg>